<?xml version="1.0" encoding="UTF-8"?>
<svg width="512" height="512" viewBox="0 0 512 512" xmlns="http://www.w3.org/2000/svg">
  <!-- Minimalistisches Design für App-Icon -->

  <!-- Hintergrund -->
  <rect width="512" height="512" fill="#2d5016" rx="80"/>

  <!-- Stilisiertes "HG" Monogram -->
  <g fill="#e8d4a0" font-family="Arial, sans-serif" font-weight="bold">
    <!-- H -->
    <rect x="100" y="140" width="40" height="232" rx="8"/>
    <rect x="100" y="236" width="100" height="40" rx="8"/>
    <rect x="160" y="140" width="40" height="232" rx="8"/>

    <!-- G -->
    <path d="M 280 256 A 96 96 0 1 1 280 140 L 376 140 L 376 180 L 320 180 L 320 332 L 376 332 A 96 96 0 0 1 280 256 Z" fill="#e8d4a0"/>
    <rect x="320" y="236" width="56" height="40" rx="8"/>
  </g>

  <!-- Kleines Hirsch-Symbol oben rechts -->
  <g transform="translate(390, 60) scale(0.3)">
    <path d="M 0 50 L -20 10 L -30 0 M 0 50 L -10 30 M 0 50 L 20 10 L 30 0 M 0 50 L 10 30"
          fill="none" stroke="#e8d4a0" stroke-width="8" stroke-linecap="round"/>
  </g>
</svg>
